<svg width="500" height="500" viewBox="0 0 500 500" fill="none" xmlns="http://www.w3.org/2000/svg">
  <rect width="500" height="500" fill="hsl(200, 5%, 87%)"/>
  <g fill="hsl(200, 5%, 75%)">
    <path d="M221.429 214.286C221.429 219.969 219.171 225.419 215.152 229.438C211.134 233.457 205.683 235.714 200 235.714C194.317 235.714 188.866 233.457 184.848 229.438C180.829 225.419 178.571 219.969 178.571 214.286C178.571 208.603 180.829 203.152 184.848 199.133C188.866 195.115 194.317 192.857 200 192.857C205.683 192.857 211.134 195.115 215.152 199.133C219.171 203.152 221.429 208.603 221.429 214.286V214.286Z"/>
    <path d="M164.286 150C156.708 150 149.441 153.01 144.083 158.368C138.724 163.727 135.714 170.994 135.714 178.571V321.429C135.714 329.006 138.724 336.273 144.083 341.632C149.441 346.99 156.708 350 164.286 350H335.714C343.292 350 350.559 346.99 355.917 341.632C361.276 336.273 364.286 329.006 364.286 321.429V178.571C364.286 170.994 361.276 163.727 355.917 158.368C350.559 153.01 343.292 150 335.714 150H164.286V150ZM335.714 164.286C339.503 164.286 343.137 165.791 345.816 168.47C348.495 171.149 350 174.783 350 178.571V271.429L296.043 243.614C294.703 242.943 293.186 242.71 291.707 242.949C290.228 243.187 288.861 243.885 287.8 244.943L234.8 297.943L196.8 272.629C195.428 271.715 193.782 271.304 192.142 271.466C190.502 271.627 188.968 272.351 187.8 273.514L150 307.143V178.571C150 174.783 151.505 171.149 154.184 168.47C156.863 165.791 160.497 164.286 164.286 164.286H335.714Z"/>
  </g>
</svg>
